PathFileType	4	(x/y/z)	S04_M20_T39.trc
DataRate	CameraRate	NumFrames	NumMarkers	Units	OrigDataRate	OrigDataStartFrame	OrigNumFrames
240	240	9	51	mm	240	455	519
Frame#	Time	Sternum			R.Acromium			L.Acromium			Top.Head			R.ASIS			L.ASIS			R.PSIS			L.PSIS			R.Great.Tro			L.Great.Tro			R.Iliac.Crest			L.Iliac.Crest			V.Sacral			R.Thigh.Upper.Post			R.Thigh.Lower.Ant			R.Thigh.Lower.Post			R.Thigh.Upper.Ant			R.Knee.Lat			R.Knee.Med			R.Shank.Upper.Post			R.Shank.Lower.Ant			R.Shank.Lower.Post			R.Shank.Upper.Ant			R.Ankle.Lat			R.Ankle.Med			R.Heel.Upper			R.Heel.Med			R.Heel.Lat			R.Toe.Lat			R.Toe.Med			R.Toe.Tip			L.Thigh.Upper.Post			L.Thigh.Lower.Ant			L.Thigh.Lower.Post			L.Thigh.Upper.Ant			L.Knee.Lat			L.Knee.Med			L.Shank.Upper.Post			L.Shank.Lower.Ant			L.Shank.Lower.Post			L.Shank.Upper.Ant			L.Ankle.Lat			L.Ankle.Med			L.Heel.Upper			L.Heel.Med			L.Heel.Lat			L.Toe.Lat			L.Toe.Med			L.Toe.Tip			Cervical.Spine			Back			
		X1	Y1	Z1	X2	Y2	Z2	X3	Y3	Z3	X4	Y4	Z4	X5	Y5	Z5	X6	Y6	Z6	X7	Y7	Z7	X8	Y8	Z8	X9	Y9	Z9	X10	Y10	Z10	X11	Y11	Z11	X12	Y12	Z12	X13	Y13	Z13	X14	Y14	Z14	X15	Y15	Z15	X16	Y16	Z16	X17	Y17	Z17	X18	Y18	Z18	X19	Y19	Z19	X20	Y20	Z20	X21	Y21	Z21	X22	Y22	Z22	X23	Y23	Z23	X24	Y24	Z24	X25	Y25	Z25	X26	Y26	Z26	X27	Y27	Z27	X28	Y28	Z28	X29	Y29	Z29	X30	Y30	Z30	X31	Y31	Z31	X32	Y32	Z32	X33	Y33	Z33	X34	Y34	Z34	X35	Y35	Z35	X36	Y36	Z36	X37	Y37	Z37	X38	Y38	Z38	X39	Y39	Z39	X40	Y40	Z40	X41	Y41	Z41	X42	Y42	Z42	X43	Y43	Z43	X44	Y44	Z44	X45	Y45	Z45	X46	Y46	Z46	X47	Y47	Z47	X48	Y48	Z48	X49	Y49	Z49	X50	Y50	Z50	X51	Y51	Z51	

455	1.8917	1671.4	1279.9	212.79	1549.9	1509.1	392.68	1529.6	1492.1	41.786	1566.5	1833.4	208.22	1664.5	998.54	342.75	1637.3	1010.7	89.555	1441.1	1034.5	271.1	1439.7	1040.4	188.86	1591.6	921.94	418.84	1504.4	932.6	43.765	1578.1	1087.7	398.33	1535.4	1094.1	56.652	1419.2	996.18	230.93	1696.6	680.69	406.76	1795.7	638.64	362.66	1734.8	599.4	388.99	1757.8	740.95	385.7	1775.3	545.53	376.85	1750.9	536.65	241.18	1685.9	328.28	375.88	1747.6	244.18	338.79	1680.6	258.44	362.86	1749.8	314.97	360.75	1685	138.7	348.29	1710.9	151.88	259.16	1622.8	107.6	288.06	1633.6	76.289	257.12	1624.4	75.017	323.18	1792.4	64.836	379.16	1832.5	68.29	265.33	1892.7	88.841	315.59	1458.8	704.85	65.434	1528.8	597.3	69.939	1457	615.44	78.304	1526.4	686.71	52.784	1482.6	514.86	85.463	1490.8	504.36	212.66	1373.5	344.45	94.991	1433.2	250.83	100.98	1371.9	267.27	105.14	1436.3	327.13	90.485	1398.9	104.41	125.12	1399.5	115.82	220.04	1318.6	76.535	172.24	1323.8	50.274	205.01	1321.2	50	143.09	1503.6	42.413	103.63	1536.4	44.379	220.75	1593.7	52.76	172.1	1489.3	1551.7	223.78	1411	1293.1	208.64
456	1.8958	1676.4	1279.2	212.8	1555.1	1508.4	392.94	1534.4	1491.5	42.07	1571.6	1832.7	208.58	1669.7	997.96	342.52	1641.8	1010	89.378	1446	1033.8	271.48	1444.5	1039.8	189.33	1597	921.42	418.92	1508.6	932.17	44.038	1583.5	1087	398.4	1539.8	1093.5	56.831	1424.1	995.5	231.39	1702.2	680.34	406.89	1801.4	638.57	362.67	1740.7	599.15	389.1	1763.3	740.76	385.75	1781.7	545.56	376.94	1757	536.31	241.35	1696.4	326.62	376.07	1759.8	243.84	338.92	1692.6	256.69	362.95	1760.6	314.64	360.82	1699.5	137.01	348.39	1725	150.84	259.24	1637.8	104.61	288.32	1649.2	73.595	257.31	1640.2	72.066	323.36	1808.5	65.36	378.99	1848.3	69.832	265.09	1908.1	91.579	315.25	1461.8	704.9	65.716	1531.2	596.98	70.107	1459.5	615.48	78.497	1529.2	686.42	53.008	1484.5	514.74	85.531	1492.7	504.14	212.79	1374.7	344.77	95.169	1433.9	250.9	101.11	1372.5	267.67	105.54	1437.3	327.2	90.619	1399	104.58	125.34	1399.8	115.96	220.25	1318.7	76.684	172.48	1323.9	50.357	205.21	1321.2	50.23	143.22	1503.6	42.428	103.69	1536.5	44.273	220.8	1593.8	52.6	172.12	1494.4	1551.1	224.12	1415.9	1292.6	208.96
457	1.9	1681.3	1278.5	212.81	1560.4	1507.6	393.22	1539.3	1490.9	42.364	1576.7	1832.1	208.95	1674.9	997.34	342.31	1646.3	1009.3	89.206	1451	1033.1	271.86	1449.2	1039.2	189.79	1602.5	920.88	419.01	1512.9	931.72	44.316	1588.9	1086.3	398.47	1544.3	1092.9	57.014	1429.1	994.8	231.85	1707.9	679.94	407.03	1807.1	638.42	362.7	1746.5	598.84	389.23	1768.7	740.51	385.82	1788	545.54	377.04	1763	535.9	241.55	1706.9	324.99	376.28	1771.9	243.57	339.07	1704.5	255	363.04	1771.3	314.34	360.91	1713.9	135.42	348.51	1739.1	149.91	259.33	1652.9	101.74	288.58	1664.7	71.036	257.52	1656.1	69.244	323.53	1824.5	66.031	378.83	1864.1	71.511	264.86	1923.4	94.447	314.94	1464.7	704.92	66.008	1533.6	596.66	70.275	1462	615.5	78.698	1532.1	686.11	53.229	1486.3	514.62	85.607	1494.7	503.91	212.93	1375.8	345.09	95.381	1434.5	250.98	101.25	1373.2	268.07	105.96	1438.3	327.28	90.76	1399.1	104.76	125.59	1400	116.12	220.46	1318.7	76.838	172.73	1323.9	50.449	205.41	1321.2	50.471	143.36	1503.7	42.443	103.76	1536.6	44.163	220.84	1593.9	52.437	172.13	1499.5	1550.4	224.46	1420.7	1292	209.3
458	1.9042	1686.3	1277.7	212.82	1565.6	1506.8	393.5	1544.2	1490.3	42.668	1581.9	1831.4	209.34	1680.1	996.69	342.1	1650.8	1008.6	89.041	1456.1	1032.4	272.25	1454	1038.6	190.26	1607.9	920.3	419.11	1517.2	931.25	44.598	1594.3	1085.6	398.55	1548.7	1092.2	57.202	1434.1	994.08	232.32	1713.5	679.48	407.19	1812.8	638.2	362.76	1752.3	598.47	389.37	1774.1	740.18	385.91	1794.2	545.45	377.16	1768.9	535.43	241.77	1717.4	323.38	376.49	1784	243.37	339.24	1716.4	253.37	363.16	1781.9	314.08	361.01	1728.4	133.95	348.64	1753.1	149.07	259.44	1667.9	98.99	288.82	1680.3	68.614	257.73	1671.9	66.555	323.69	1840.4	66.849	378.69	1879.7	73.322	264.67	1938.6	97.442	314.65	1467.7	704.92	66.306	1536	596.32	70.442	1464.5	615.51	78.907	1534.9	685.79	53.448	1488.3	514.5	85.693	1496.7	503.67	213.07	1377	345.43	95.635	1435.2	251.05	101.39	1373.9	268.47	106.39	1439.4	327.35	90.908	1399.2	104.95	125.84	1400.3	116.27	220.68	1318.8	77	173.01	1324	50.553	205.64	1321.3	50.723	143.52	1503.7	42.457	103.82	1536.8	44.051	220.89	1594	52.271	172.14	1504.6	1549.7	224.82	1425.6	1291.4	209.65
459	1.9083	1691.3	1276.9	212.85	1570.9	1506	393.8	1549.1	1489.6	42.982	1587	1830.8	209.73	1685.4	996.02	341.9	1655.4	1007.8	88.883	1461.1	1031.7	272.64	1458.9	1037.9	190.72	1613.4	919.69	419.2	1521.5	930.76	44.881	1599.7	1084.9	398.63	1553.2	1091.5	57.394	1439	993.35	232.78	1719	678.96	407.36	1818.4	637.91	362.84	1758	598.03	389.53	1779.5	739.8	386.02	1800.4	545.31	377.29	1774.8	534.9	242	1727.8	321.81	376.73	1796	243.23	339.44	1728.2	251.8	363.29	1792.5	313.85	361.14	1742.7	132.59	348.78	1767.1	148.33	259.57	1682.9	96.362	289.06	1695.8	66.329	257.94	1687.6	64.004	323.85	1856.2	67.814	378.57	1895.1	75.265	264.5	1953.6	100.56	314.4	1470.7	704.9	66.61	1538.4	595.97	70.608	1467	615.51	79.126	1537.8	685.46	53.664	1490.3	514.36	85.789	1498.7	503.43	213.22	1378.1	345.78	95.933	1436	251.13	101.55	1374.6	268.88	106.82	1440.5	327.41	91.064	1399.3	105.15	126.12	1400.6	116.44	220.91	1318.9	77.173	173.3	1324.1	50.671	205.88	1321.3	50.988	143.69	1503.7	42.472	103.89	1536.9	43.937	220.94	1594.1	52.101	172.14	1509.7	1549	225.19	1430.5	1290.7	210.01
460	1.9125	1696.3	1276.1	212.87	1576.3	1505.1	394.1	1554	1489	43.305	1592.2	1830.1	210.13	1690.6	995.31	341.7	1659.9	1007	88.732	1466.2	1030.9	273.04	1463.7	1037.3	191.18	1618.9	919.06	419.3	1525.8	930.26	45.165	1605.2	1084.1	398.73	1557.7	1090.8	57.591	1444	992.6	233.24	1724.5	678.39	407.54	1823.9	637.55	362.95	1763.6	597.53	389.7	1784.8	739.35	386.15	1806.5	545.11	377.44	1780.6	534.3	242.24	1738.2	320.27	376.97	1807.9	243.16	339.65	1740	250.29	363.44	1803	313.65	361.28	1757	131.35	348.94	1780.9	147.7	259.7	1697.9	93.86	289.3	1711.3	64.184	258.16	1703.4	61.595	324.01	1871.9	68.926	378.48	1910.5	77.336	264.36	1968.5	103.8	314.18	1473.8	704.86	66.919	1540.9	595.61	70.774	1469.6	615.5	79.355	1540.7	685.11	53.878	1492.3	514.22	85.894	1500.9	503.17	213.38	1379.3	346.14	96.277	1436.7	251.21	101.71	1375.4	269.29	107.25	1441.6	327.48	91.228	1399.4	105.37	126.41	1400.9	116.61	221.15	1319	77.358	173.61	1324.3	50.803	206.14	1321.3	51.267	143.89	1503.7	42.487	103.96	1537	43.822	220.98	1594.2	51.926	172.15	1514.9	1548.2	225.57	1435.4	1290.1	210.39
461	1.9167	1701.3	1275.3	212.91	1581.6	1504.2	394.41	1558.9	1488.3	43.637	1597.4	1829.3	210.55	1695.9	994.58	341.52	1664.5	1006.2	88.588	1471.2	1030.2	273.44	1468.6	1036.6	191.65	1624.3	918.4	419.4	1530.2	929.74	45.448	1610.7	1083.4	398.83	1562.2	1090.1	57.793	1449	991.83	233.7	1729.9	677.77	407.74	1829.4	637.11	363.08	1769.2	596.98	389.88	1790.1	738.84	386.29	1812.6	544.86	377.6	1786.4	533.65	242.49	1748.5	318.75	377.24	1819.7	243.16	339.89	1751.8	248.85	363.61	1813.4	313.49	361.45	1771.2	130.22	349.11	1794.8	147.16	259.85	1712.9	91.486	289.53	1726.8	62.18	258.39	1719.1	59.334	324.17	1887.5	70.184	378.42	1925.8	79.53	264.25	1983.2	107.15	314	1476.9	704.81	67.231	1543.4	595.24	70.939	1472.2	615.48	79.595	1543.7	684.76	54.091	1494.4	514.08	86.01	1503	502.91	213.55	1380.5	346.52	96.666	1437.5	251.29	101.89	1376.2	269.7	107.68	1442.7	327.55	91.402	1399.4	105.59	126.72	1401.2	116.79	221.4	1319.2	77.561	173.93	1324.4	50.953	206.41	1321.3	51.561	144.1	1503.7	42.502	104.04	1537.1	43.704	221.03	1594.3	51.746	172.15	1520	1547.5	225.96	1440.4	1289.4	210.77
462	1.9208	1706.3	1274.4	212.95	1586.9	1503.3	394.73	1563.8	1487.5	43.979	1602.6	1828.6	210.97	1701.2	993.82	341.33	1669.1	1005.3	88.452	1476.3	1029.4	273.85	1473.5	1035.9	192.12	1629.9	917.72	419.51	1534.5	929.21	45.732	1616.2	1082.6	398.93	1566.8	1089.3	58.002	1454.1	991.06	234.17	1735.3	677.1	407.94	1834.8	636.61	363.23	1774.7	596.36	390.07	1795.4	738.26	386.44	1818.5	544.55	377.78	1792.2	532.95	242.75	1758.8	317.28	377.52	1831.4	243.23	340.14	1763.5	247.48	363.81	1823.7	313.36	361.63	1785.4	129.21	349.29	1808.5	146.73	260.02	1727.8	89.241	289.77	1742.2	60.316	258.62	1734.7	57.224	324.34	1903	71.588	378.39	1940.9	81.846	264.18	1997.8	110.62	313.86	1480	704.74	67.546	1546	594.87	71.104	1474.9	615.45	79.847	1546.7	684.39	54.302	1496.5	513.93	86.137	1505.2	502.64	213.73	1381.7	346.91	97.093	1438.3	251.39	102.06	1377	270.11	108.1	1443.9	327.61	91.586	1399.4	105.83	127.04	1401.5	116.98	221.66	1319.3	77.783	174.27	1324.5	51.122	206.7	1321.4	51.872	144.34	1503.7	42.516	104.12	1537.2	43.586	221.08	1594.4	51.561	172.15	1525.2	1546.7	226.37	1445.3	1288.7	211.17
463	1.925	1711.4	1273.6	213.01	1592.3	1502.4	395.06	1568.8	1486.8	44.331	1607.9	1827.8	211.41	1706.5	993.03	341.16	1673.7	1004.5	88.325	1481.4	1028.6	274.27	1478.4	1035.2	192.6	1635.4	917.01	419.62	1538.8	928.67	46.016	1621.8	1081.7	399.04	1571.3	1088.6	58.217	1459.1	990.27	234.65	1740.7	676.38	408.16	1840.2	636.04	363.4	1780.2	595.69	390.28	1800.6	737.62	386.62	1824.4	544.19	377.97	1797.9	532.2	243.01	1769	315.84	377.81	1843.1	243.37	340.41	1775.1	246.18	364.02	1834	313.26	361.84	1799.5	128.33	349.49	1822.2	146.4	260.19	1742.6	87.127	290.01	1757.6	58.595	258.86	1750.3	55.271	324.52	1918.3	73.135	378.39	1955.8	84.277	264.14	2012.2	114.19	313.75	1483.1	704.67	67.864	1548.6	594.48	71.27	1477.6	615.41	80.11	1549.7	684.02	54.512	1498.7	513.78	86.274	1507.5	502.37	213.91	1382.9	347.31	97.553	1439.2	251.49	102.25	1377.9	270.53	108.52	1445.1	327.67	91.781	1399.3	106.09	127.37	1401.9	117.17	221.92	1319.4	78.027	174.62	1324.6	51.313	207	1321.4	52.201	144.59	1503.7	42.532	104.2	1537.3	43.467	221.13	1594.6	51.372	172.15	1530.4	1545.9	226.78	1450.3	1288	211.57
